<?xml version="1.0" encoding="UTF-8" standalone="no"?>
<svg
   xmlns:dc="http://purl.org/dc/elements/1.1/"
   xmlns:cc="http://creativecommons.org/ns#"
   xmlns:rdf="http://www.w3.org/1999/02/22-rdf-syntax-ns#"
   xmlns:svg="http://www.w3.org/2000/svg"
   xmlns="http://www.w3.org/2000/svg"
   xmlns:sodipodi="http://sodipodi.sourceforge.net/DTD/sodipodi-0.dtd"
   xmlns:inkscape="http://www.inkscape.org/namespaces/inkscape"
   width="860"
   height="255"
   viewBox="0 0 645.00002 191.24999"
   version="1.1"
   id="svg69"
   sodipodi:docname="Google  Play Logo.svg"
   inkscape:version="0.92.4 (5da689c313, 2019-01-14)">
  <metadata
     id="metadata75">
    <rdf:RDF>
      <cc:Work
         rdf:about="">
        <dc:format>image/svg+xml</dc:format>
        <dc:type
           rdf:resource="http://purl.org/dc/dcmitype/StillImage" />
        <dc:title></dc:title>
      </cc:Work>
    </rdf:RDF>
  </metadata>
  <defs
     id="defs73" />
  <sodipodi:namedview
     pagecolor="#ffffff"
     bordercolor="#666666"
     borderopacity="1"
     objecttolerance="10"
     gridtolerance="10"
     guidetolerance="10"
     inkscape:pageopacity="0"
     inkscape:pageshadow="2"
     inkscape:window-width="1366"
     inkscape:window-height="705"
     id="namedview71"
     showgrid="false"
     inkscape:zoom="0.93259284"
     inkscape:cx="370.88823"
     inkscape:cy="125.12303"
     inkscape:window-x="-8"
     inkscape:window-y="-8"
     inkscape:window-maximized="1"
     inkscape:current-layer="svg69"
     units="px" />
  <g
     id="#ffffffff"
     transform="translate(0,-58.750015)" />
  <g
     id="g130"
     transform="matrix(1.1455358,0,0,1.1433892,-46.341686,-47.168239)">
    <g
       id="#a6a6a6ff">
      <path
         id="path2"
         d="m 55.47,42.61 c 4.04,-1.4 8.35,-1.29 12.57,-1.22 171.64,0 343.28,0 514.93,-0.01 10.79,-0.3 20.9,8.72 21.32,19.6 0.11,41.67 -0.01,83.33 0.06,125 1.17,11.93 -9.38,23.02 -21.32,22.63 C 409.35,208.59 235.68,208.64 62,208.59 51.09,208.54 41.46,198.91 41.41,188 c -0.04,-41.98 -0.03,-83.97 0,-125.95 0.1,-8.59 5.99,-16.64 14.06,-19.44 m 2.94,3.04 c -7.31,1.72 -13.25,8.72 -13.17,16.33 0.02,42.01 0.02,84.01 0,126.02 -0.09,8.13 6.67,15.57 14.66,16.63 2.7,0.38 5.44,0.39 8.16,0.38 171.34,-0.05 342.68,0.05 514.01,-0.05 9.48,0.55 18.53,-7.27 18.64,-16.91 0.09,-41.67 0.01,-83.34 0.04,-125.02 0.05,-5.66 -2.62,-11.36 -7.32,-14.6 -3.58,-2.66 -8.12,-3.48 -12.49,-3.42 C 408.95,44.99 236.95,45 64.96,45 c -2.19,0.06 -4.4,0.17 -6.55,0.65 z"
         inkscape:connector-curvature="0"
         style="opacity:1;fill:#a6a6a6" />
    </g>
    <g
       id="#000000ff">
      <path
         id="path5"
         d="m 58.41,45.65 c 2.15,-0.48 4.36,-0.59 6.55,-0.65 171.99,0 343.99,-0.01 515.98,0.01 4.37,-0.06 8.91,0.76 12.49,3.42 4.7,3.24 7.37,8.94 7.32,14.6 -0.03,41.68 0.05,83.35 -0.04,125.02 -0.11,9.64 -9.16,17.46 -18.64,16.91 -171.33,0.1 -342.67,0 -514.01,0.05 -2.72,0.01 -5.46,0 -8.16,-0.38 -7.99,-1.06 -14.75,-8.5 -14.66,-16.63 0.02,-42.01 0.02,-84.01 0,-126.02 C 45.16,54.37 51.1,47.37 58.41,45.65 M 218.9,72.78 c -5.5,4.07 -6.46,12.58 -2.89,18.18 4.33,7.29 16.08,8.19 21.39,1.55 2.67,-2.76 2.72,-6.77 2.45,-10.34 -4.26,-0.07 -8.52,-0.01 -12.78,-0.06 -0.02,1.28 -0.04,2.56 -0.06,3.85 3.08,-0.12 6.17,-0.1 9.27,-0.11 -1.02,5.81 -8.17,9.33 -13.27,6.15 -5.9,-2.82 -6.86,-11.71 -1.81,-15.8 3.71,-3.58 9.79,-2.87 13.2,0.77 0.87,-0.97 1.75,-1.92 2.63,-2.88 -4.59,-4.92 -12.9,-5.49 -18.13,-1.31 m 42.47,-2.23 c 0,0.98 0.02,2.93 0.02,3.91 2.32,0.04 4.65,0.05 6.98,0.06 0.08,7.26 -0.18,14.52 0.13,21.78 0.99,-0.01 2.96,-0.03 3.95,-0.03 0.12,-7.26 0.01,-14.52 0.06,-21.78 2.33,0.01 4.66,0.01 6.99,0.01 0,-1 0,-3 0,-4 -6.04,0.02 -12.09,-0.07 -18.13,0.05 m 37,0.01 c 0,0.97 0.01,2.92 0.02,3.9 2.32,0.04 4.65,0.05 6.98,0.06 0.08,7.26 -0.19,14.53 0.13,21.78 0.99,-0.01 2.96,-0.02 3.95,-0.03 0.13,-7.26 0.01,-14.51 0.06,-21.77 2.33,0 4.66,0 6.99,0 0,-1 0,-3 0,-4 -6.04,0.02 -12.09,-0.07 -18.13,0.06 m 36.17,0.12 c -5.42,1.89 -9.2,7.63 -8.5,13.39 -0.56,8.83 9.46,15.29 17.5,12.26 8.98,-2.72 12,-15.65 5.3,-22.15 -3.39,-4.17 -9.4,-4.98 -14.3,-3.5 m -249.77,2.1 c -1.24,2.2 -1.87,4.66 -1.75,7.2 C 82.99,110 83,140.02 83,170.04 c -0.05,2.48 0.55,4.93 1.8,7.07 l 0.77,-0.75 -0.73,0.82 c 3.06,2.22 6.95,1.51 9.91,-0.47 20.04,-11.37 40.09,-22.75 60.15,-34.09 7.15,-4.13 14.44,-8.03 21.5,-12.31 3.73,-2.11 4.39,-7.87 0.57,-10.26 -7.7,-5.05 -16.07,-9.02 -23.85,-13.96 -20.19,-11.06 -39.99,-22.83 -60.17,-33.92 -2.61,-1.5 -5.78,-1.15 -8.18,0.61 m 158.37,-2.23 c -0.01,8.56 -0.01,17.12 0,25.67 5.16,0.05 10.32,0.04 15.49,0.01 0,-0.92 -0.01,-2.76 -0.01,-3.68 -3.9,-0.1 -7.81,-0.04 -11.71,-0.05 0.02,-2.42 0.02,-4.84 0.03,-7.25 3.52,0 7.04,0 10.56,0 0,-0.94 0,-2.81 0,-3.75 -3.53,0 -7.06,0 -10.59,0 0,-2.35 0.01,-4.69 0.12,-7.04 3.85,0.06 7.71,0.06 11.57,0.01 0.01,-0.98 0.02,-2.95 0.03,-3.93 -5.17,-0.07 -10.33,-0.08 -15.49,0.01 m 48,0.01 c -0.01,8.56 -0.01,17.11 0,25.66 1.27,0.01 2.54,0.03 3.82,0.05 -0.06,-8.61 -0.03,-17.21 -0.01,-25.81 -1.28,0.03 -2.55,0.07 -3.81,0.1 m 65,0.01 c -0.02,8.55 -0.01,17.1 0,25.65 1.27,0.01 2.54,0.03 3.82,0.05 -0.03,-6.41 -0.09,-12.82 0.04,-19.23 4.23,6.27 7.99,12.84 12.11,19.19 1.37,0.01 2.75,0.02 4.14,0.03 0,-8.59 0,-17.19 0,-25.78 -1.38,0.02 -2.74,0.04 -4.11,0.07 -0.04,6.01 0.03,12.01 -0.01,18.02 -4.08,-5.91 -7.58,-12.2 -11.6,-18.16 -1.47,0.06 -2.93,0.11 -4.39,0.16 m -142.05,60.52 c -3.65,9.88 -0.82,21.73 6.95,28.85 9.83,9.94 27.77,10.87 38.03,1.11 6.31,-5.88 8.58,-15.35 6.81,-23.64 -8.46,0.2 -16.92,0.03 -25.38,0.1 0,2.66 0,5.32 0,7.99 5.99,0.02 11.99,-0.02 17.99,0.02 -0.61,2.99 -1.41,6.11 -3.56,8.4 -6.44,7.65 -19.12,8.11 -26.63,1.79 -6.93,-5.47 -9.3,-15.84 -5.51,-23.8 3.28,-7.61 11.8,-12.53 20.03,-11.46 4.31,0.34 8.12,2.57 11.41,5.22 1.81,-1.84 3.63,-3.66 5.44,-5.5 -4.54,-4.29 -10.44,-7.18 -16.73,-7.54 -12.35,-1.22 -24.78,6.75 -28.85,18.46 m 273,-16.65 c -0.19,17.44 -0.07,34.89 -0.06,52.33 2.72,-0.02 5.46,-0.03 8.19,0 0.07,-17.42 0.01,-34.84 0.03,-52.26 -2.72,0 -5.45,-0.01 -8.16,-0.07 m -101.34,0.06 c 0,17.42 -0.01,34.84 0.01,52.26 2.66,-0.01 5.32,-0.01 7.99,-0.01 0.01,-17.41 -0.01,-34.82 0.01,-52.23 -2.67,-0.03 -5.34,-0.03 -8.01,-0.02 m 61.25,0 c 0,17.42 -0.01,34.84 0.01,52.26 2.74,-0.01 5.49,-0.01 8.24,-0.01 0,-6.58 0.01,-13.16 -0.01,-19.74 3.6,-0.03 7.2,0.01 10.81,0 7.1,0.17 14.3,-4.52 16.34,-11.45 1.19,-4.19 0.86,-8.92 -1.35,-12.71 -3.03,-5.23 -9.04,-8.49 -15.06,-8.37 -6.32,0.02 -12.65,0.02 -18.98,0.02 m -164.54,18.12 c -11.13,2.11 -17.08,15.92 -11.7,25.69 4.65,9.89 18.86,12.55 27.2,5.84 7.59,-5.72 8.96,-17.66 3.14,-25.11 -4.19,-5.67 -11.88,-7.96 -18.64,-6.42 m 38.02,0.18 c -10.16,2.51 -15.57,14.64 -11.56,24.1 3.81,10.41 18.02,14.19 26.89,7.92 8.65,-5.46 10.23,-18.72 3.64,-26.36 -4.45,-5.52 -12.26,-7.42 -18.97,-5.66 m 37.61,0.36 c -6.91,2.46 -11.72,9.56 -11.62,16.87 -0.32,9.33 7.97,18.33 17.5,17.76 3.44,0.14 6.7,-1.4 9.07,-3.84 -0.03,2.89 0.15,5.99 -1.46,8.55 -2.04,3.56 -6.78,4.8 -10.55,3.62 -2.89,-0.84 -4.84,-3.36 -6.21,-5.9 -2.36,0.92 -4.69,1.88 -7.01,2.89 2.13,5.11 6.71,9.24 12.2,10.32 5.6,1.06 11.99,-0.11 16.07,-4.33 3.58,-3.7 4.63,-9.05 4.67,-14.02 0.01,-10.61 0,-21.22 0,-31.83 -2.57,0 -5.14,0 -7.71,-0.03 -0.01,0.71 -0.04,2.12 -0.05,2.82 -3.72,-4.02 -9.93,-4.78 -14.9,-2.88 m 44.57,3.53 c -7.48,7.21 -7.01,21 1.25,27.44 7.76,6.24 21.28,4.59 26.03,-4.54 -2.07,-1.23 -4.07,-2.56 -6.04,-3.94 -1.83,2.23 -4.04,4.49 -7.07,4.81 -4.07,0.88 -8.35,-1.28 -10.11,-5.03 7.91,-3.17 15.77,-6.5 23.67,-9.74 -1.75,-5.57 -5.52,-10.98 -11.3,-12.81 -5.62,-1.68 -12.21,-0.35 -16.43,3.81 m 97.39,3.64 c 2.36,0.92 4.71,1.89 7.04,2.91 3.36,-6.33 14.84,-4.53 15.37,2.93 -6.21,-2.86 -14.05,-2.49 -19.49,1.85 -4.57,3.56 -5.03,10.93 -1.31,15.25 5.11,5.92 15.81,6.29 20.63,-0.23 -0.01,0.93 -0.04,2.78 -0.05,3.71 2.58,0 5.16,0 7.74,0.02 0,-7.31 0.08,-14.62 -0.02,-21.92 -0.27,-5.61 -4.58,-10.5 -9.92,-11.96 -7.17,-2.25 -16.99,-0.21 -19.99,7.44 m 30.18,-7.05 c 4.66,10.52 9.27,21.07 13.91,31.61 -2.66,5.85 -5.22,11.75 -7.94,17.58 2.84,0.05 5.7,0.06 8.55,-0.03 7.08,-16.4 14.24,-32.78 21.37,-49.16 -2.99,-0.04 -5.97,-0.03 -8.95,-0.06 -3.02,7.49 -5.99,15 -8.89,22.54 -3.25,-7.44 -6.2,-15 -9.27,-22.51 -2.93,-0.01 -5.86,-0.01 -8.78,0.03 z"
         inkscape:connector-curvature="0"
         style="opacity:1;fill:#000000" />
      <path
         id="path7"
         d="m 335.4,74.65 c 6,-3.16 13.87,2.59 12.84,9.27 0.5,7.13 -8.97,12.14 -14.45,7.37 -5.82,-4.01 -4.81,-13.79 1.61,-16.64 z"
         inkscape:connector-curvature="0"
         style="opacity:1;fill:#000000" />
      <path
         id="path9"
         d="m 455.25,122.01 c 5.97,0.63 13.89,-2.14 18.05,3.63 3.96,4.79 0.6,12.73 -5.38,13.71 -4.23,0.34 -8.49,0.12 -12.73,0.07 0.12,-5.8 0.03,-11.61 0.06,-17.41 z"
         inkscape:connector-curvature="0"
         style="opacity:1;fill:#000000" />
      <path
         id="path11"
         d="m 405.13,149.28 c 0.28,-4.53 3.31,-8.99 7.95,-9.85 3.03,-0.79 5.93,0.94 7.95,3.07 -5.13,2.63 -10.58,4.57 -15.9,6.78 z"
         inkscape:connector-curvature="0"
         style="opacity:1;fill:#000000" />
      <path
         id="path13"
         d="m 283.2,140.15 c 6.43,-2.95 13.9,3.07 13.43,9.86 0.45,6.87 -7.09,12.86 -13.58,9.85 -8.14,-3.27 -8.13,-16.61 0.15,-19.71 z"
         inkscape:connector-curvature="0"
         style="opacity:1;fill:#000000" />
      <path
         id="path15"
         d="m 321.32,140.45 c 4.54,-2.46 10.82,-0.28 12.9,4.45 3.16,5.6 0.11,13.91 -6.32,15.42 -5.82,1.68 -11.89,-3.4 -12.15,-9.24 -0.47,-4.23 1.7,-8.72 5.57,-10.63 z"
         inkscape:connector-curvature="0"
         style="opacity:1;fill:#000000" />
      <path
         id="path17"
         d="m 361.07,140.01 c 6.42,-2.71 13,3.59 12.47,10.02 0.72,6.74 -6.79,13.08 -13.15,9.7 -8.12,-3.47 -7.57,-16.8 0.68,-19.72 z"
         inkscape:connector-curvature="0"
         style="opacity:1;fill:#000000" />
      <path
         id="path19"
         d="m 508.93,152.8 c 3.91,-2.78 9.35,-2.22 13.47,-0.19 -0.95,5.78 -7.67,9.97 -13.09,7.05 -2.73,-1.26 -2.73,-5.23 -0.38,-6.86 z"
         inkscape:connector-curvature="0"
         style="opacity:1;fill:#000000" />
    </g>
    <path
       id="path22"
       d="m 218.9,72.78 c 5.23,-4.18 13.54,-3.61 18.13,1.31 -0.88,0.96 -1.76,1.91 -2.63,2.88 -3.41,-3.64 -9.49,-4.35 -13.2,-0.77 -5.05,4.09 -4.09,12.98 1.81,15.8 5.1,3.18 12.25,-0.34 13.27,-6.15 -3.1,0.01 -6.19,-0.01 -9.27,0.11 0.02,-1.29 0.04,-2.57 0.06,-3.85 4.26,0.05 8.52,-0.01 12.78,0.06 0.27,3.57 0.22,7.58 -2.45,10.34 -5.31,6.64 -17.06,5.74 -21.39,-1.55 -3.57,-5.6 -2.61,-14.11 2.89,-18.18 z"
       style="opacity:1;fill:#ffffff"
       inkscape:connector-curvature="0" />
    <path
       id="path24"
       d="m 261.37,70.55 c 6.04,-0.12 12.09,-0.03 18.13,-0.05 0,1 0,3 0,4 -2.33,0 -4.66,0 -6.99,-0.01 -0.05,7.26 0.06,14.52 -0.06,21.78 -0.99,0 -2.96,0.02 -3.95,0.03 -0.31,-7.26 -0.05,-14.52 -0.13,-21.78 -2.33,-0.01 -4.66,-0.02 -6.98,-0.06 0,-0.98 -0.02,-2.93 -0.02,-3.91 z"
       style="opacity:1;fill:#ffffff"
       inkscape:connector-curvature="0" />
    <path
       id="path26"
       d="m 298.37,70.56 c 6.04,-0.13 12.09,-0.04 18.13,-0.06 0,1 0,3 0,4 -2.33,0 -4.66,0 -6.99,0 -0.05,7.26 0.07,14.51 -0.06,21.77 -0.99,0.01 -2.96,0.02 -3.95,0.03 -0.32,-7.25 -0.05,-14.52 -0.13,-21.78 -2.33,-0.01 -4.66,-0.02 -6.98,-0.06 -0.01,-0.98 -0.02,-2.93 -0.02,-3.9 z"
       style="opacity:1;fill:#ffffff"
       inkscape:connector-curvature="0" />
    <path
       id="path28"
       d="m 334.54,70.68 c 4.9,-1.48 10.91,-0.67 14.3,3.5 6.7,6.5 3.68,19.43 -5.3,22.15 -8.04,3.03 -18.06,-3.43 -17.5,-12.26 -0.7,-5.76 3.08,-11.5 8.5,-13.39 m 0.86,3.97 c -6.42,2.85 -7.43,12.63 -1.61,16.64 5.48,4.77 14.95,-0.24 14.45,-7.37 1.03,-6.68 -6.84,-12.43 -12.84,-9.27 z"
       style="opacity:1;fill:#ffffff"
       inkscape:connector-curvature="0" />
    <path
       id="path30"
       d="m 243.14,70.55 c 5.16,-0.09 10.32,-0.08 15.49,-0.01 -0.01,0.98 -0.02,2.95 -0.03,3.93 -3.86,0.05 -7.72,0.05 -11.57,-0.01 -0.11,2.35 -0.12,4.69 -0.12,7.04 3.53,0 7.06,0 10.59,0 0,0.94 0,2.81 0,3.75 -3.52,0 -7.04,0 -10.56,0 -0.01,2.41 -0.01,4.83 -0.03,7.25 3.9,0.01 7.81,-0.05 11.71,0.05 0,0.92 0.01,2.76 0.01,3.68 -5.17,0.03 -10.33,0.04 -15.49,-0.01 -0.01,-8.55 -0.01,-17.11 0,-25.67 z"
       style="opacity:1;fill:#ffffff"
       inkscape:connector-curvature="0" />
    <path
       id="path32"
       d="m 291.14,70.56 c 1.26,-0.03 2.53,-0.07 3.81,-0.1 -0.02,8.6 -0.05,17.2 0.01,25.81 -1.28,-0.02 -2.55,-0.04 -3.82,-0.05 -0.01,-8.55 -0.01,-17.1 0,-25.66 z"
       style="opacity:1;fill:#ffffff"
       inkscape:connector-curvature="0" />
    <path
       id="path34"
       d="m 356.14,70.57 c 1.46,-0.05 2.92,-0.1 4.39,-0.16 4.02,5.96 7.52,12.25 11.6,18.16 0.04,-6.01 -0.03,-12.01 0.01,-18.02 1.37,-0.03 2.73,-0.05 4.11,-0.07 0,8.59 0,17.19 0,25.78 -1.39,-0.01 -2.77,-0.02 -4.14,-0.03 -4.12,-6.35 -7.88,-12.92 -12.11,-19.19 -0.13,6.41 -0.07,12.82 -0.04,19.23 -1.28,-0.02 -2.55,-0.04 -3.82,-0.05 -0.01,-8.55 -0.02,-17.1 0,-25.65 z"
       style="opacity:1;fill:#ffffff"
       inkscape:connector-curvature="0" />
    <path
       id="path36"
       d="m 214.09,131.09 c 4.07,-11.71 16.5,-19.68 28.85,-18.46 6.29,0.36 12.19,3.25 16.73,7.54 -1.81,1.84 -3.63,3.66 -5.44,5.5 -3.29,-2.65 -7.1,-4.88 -11.41,-5.22 -8.23,-1.07 -16.75,3.85 -20.03,11.46 -3.79,7.96 -1.42,18.33 5.51,23.8 7.51,6.32 20.19,5.86 26.63,-1.79 2.15,-2.29 2.95,-5.41 3.56,-8.4 -6,-0.04 -12,0 -17.99,-0.02 0,-2.67 0,-5.33 0,-7.99 8.46,-0.07 16.92,0.1 25.38,-0.1 1.77,8.29 -0.5,17.76 -6.81,23.64 -10.26,9.76 -28.2,8.83 -38.03,-1.11 -7.77,-7.12 -10.6,-18.97 -6.95,-28.85 z"
       style="opacity:1;fill:#ffffff"
       inkscape:connector-curvature="0" />
    <path
       id="path38"
       d="m 487.09,114.44 c 2.71,0.06 5.44,0.07 8.16,0.07 -0.02,17.42 0.04,34.84 -0.03,52.26 -2.73,-0.03 -5.47,-0.02 -8.19,0 -0.01,-17.44 -0.13,-34.89 0.06,-52.33 z"
       style="opacity:1;fill:#ffffff"
       inkscape:connector-curvature="0" />
    <path
       id="path40"
       d="m 385.75,114.5 c 2.67,-0.01 5.34,-0.01 8.01,0.02 -0.02,17.41 0,34.82 -0.01,52.23 -2.67,0 -5.33,0 -7.99,0.01 -0.02,-17.42 -0.01,-34.84 -0.01,-52.26 z"
       style="opacity:1;fill:#ffffff"
       inkscape:connector-curvature="0" />
    <path
       id="path42"
       d="m 447,114.5 c 6.33,0 12.66,0 18.98,-0.02 6.02,-0.12 12.03,3.14 15.06,8.37 2.21,3.79 2.54,8.52 1.35,12.71 -2.04,6.93 -9.24,11.62 -16.34,11.45 -3.61,0.01 -7.21,-0.03 -10.81,0 0.02,6.58 0.01,13.16 0.01,19.74 -2.75,0 -5.5,0 -8.24,0.01 C 446.99,149.34 447,131.92 447,114.5 m 8.25,7.51 c -0.03,5.8 0.06,11.61 -0.06,17.41 4.24,0.05 8.5,0.27 12.73,-0.07 5.98,-0.98 9.34,-8.92 5.38,-13.71 -4.16,-5.77 -12.08,-3 -18.05,-3.63 z"
       style="opacity:1;fill:#ffffff"
       inkscape:connector-curvature="0" />
    <path
       id="path44"
       d="m 282.46,132.62 c 6.76,-1.54 14.45,0.75 18.64,6.42 5.82,7.45 4.45,19.39 -3.14,25.11 -8.34,6.71 -22.55,4.05 -27.2,-5.84 -5.38,-9.77 0.57,-23.58 11.7,-25.69 m 0.74,7.53 c -8.28,3.1 -8.29,16.44 -0.15,19.71 6.49,3.01 14.03,-2.98 13.58,-9.85 0.47,-6.79 -7,-12.81 -13.43,-9.86 z"
       style="opacity:1;fill:#ffffff"
       inkscape:connector-curvature="0" />
    <path
       id="path46"
       d="m 320.48,132.8 c 6.71,-1.76 14.52,0.14 18.97,5.66 6.59,7.64 5.01,20.9 -3.64,26.36 -8.87,6.27 -23.08,2.49 -26.89,-7.92 -4.01,-9.46 1.4,-21.59 11.56,-24.1 m 0.84,7.65 c -3.87,1.91 -6.04,6.4 -5.57,10.63 0.26,5.84 6.33,10.92 12.15,9.24 6.43,-1.51 9.48,-9.82 6.32,-15.42 -2.08,-4.73 -8.36,-6.91 -12.9,-4.45 z"
       style="opacity:1;fill:#ffffff"
       inkscape:connector-curvature="0" />
    <path
       id="path48"
       d="m 358.09,133.16 c 4.97,-1.9 11.18,-1.14 14.9,2.88 0.01,-0.7 0.04,-2.11 0.05,-2.82 2.57,0.03 5.14,0.03 7.71,0.03 0,10.61 0.01,21.22 0,31.83 -0.04,4.97 -1.09,10.32 -4.67,14.02 -4.08,4.22 -10.47,5.39 -16.07,4.33 -5.49,-1.08 -10.07,-5.21 -12.2,-10.32 2.32,-1.01 4.65,-1.97 7.01,-2.89 1.37,2.54 3.32,5.06 6.21,5.9 3.77,1.18 8.51,-0.06 10.55,-3.62 1.61,-2.56 1.43,-5.66 1.46,-8.55 -2.37,2.44 -5.63,3.98 -9.07,3.84 -9.53,0.57 -17.82,-8.43 -17.5,-17.76 -0.1,-7.31 4.71,-14.41 11.62,-16.87 m 2.98,6.85 c -8.25,2.92 -8.8,16.25 -0.68,19.72 6.36,3.38 13.87,-2.96 13.15,-9.7 0.53,-6.43 -6.05,-12.73 -12.47,-10.02 z"
       style="opacity:1;fill:#ffffff"
       inkscape:connector-curvature="0" />
    <path
       id="path50"
       d="m 402.66,136.69 c 4.22,-4.16 10.81,-5.49 16.43,-3.81 5.78,1.83 9.55,7.24 11.3,12.81 -7.9,3.24 -15.76,6.57 -23.67,9.74 1.76,3.75 6.04,5.91 10.11,5.03 3.03,-0.32 5.24,-2.58 7.07,-4.81 1.97,1.38 3.97,2.71 6.04,3.94 -4.75,9.13 -18.27,10.78 -26.03,4.54 -8.26,-6.44 -8.73,-20.23 -1.25,-27.44 m 2.47,12.59 c 5.32,-2.21 10.77,-4.15 15.9,-6.78 -2.02,-2.13 -4.92,-3.86 -7.95,-3.07 -4.64,0.86 -7.67,5.32 -7.95,9.85 z"
       style="opacity:1;fill:#ffffff"
       inkscape:connector-curvature="0" />
    <path
       id="path52"
       d="m 500.05,140.33 c 3,-7.65 12.82,-9.69 19.99,-7.44 5.34,1.46 9.65,6.35 9.92,11.96 0.1,7.3 0.02,14.61 0.02,21.92 -2.58,-0.02 -5.16,-0.02 -7.74,-0.02 0.01,-0.93 0.04,-2.78 0.05,-3.71 -4.82,6.52 -15.52,6.15 -20.63,0.23 -3.72,-4.32 -3.26,-11.69 1.31,-15.25 5.44,-4.34 13.28,-4.71 19.49,-1.85 -0.53,-7.46 -12.01,-9.26 -15.37,-2.93 -2.33,-1.02 -4.68,-1.99 -7.04,-2.91 m 8.88,12.47 c -2.35,1.63 -2.35,5.6 0.38,6.86 5.42,2.92 12.14,-1.27 13.09,-7.05 -4.12,-2.03 -9.56,-2.59 -13.47,0.19 z"
       style="opacity:1;fill:#ffffff"
       inkscape:connector-curvature="0" />
    <path
       id="path54"
       d="m 530.23,133.28 c 2.92,-0.04 5.85,-0.04 8.78,-0.03 3.07,7.51 6.02,15.07 9.27,22.51 2.9,-7.54 5.87,-15.05 8.89,-22.54 2.98,0.03 5.96,0.02 8.95,0.06 -7.13,16.38 -14.29,32.76 -21.37,49.16 -2.85,0.09 -5.71,0.08 -8.55,0.03 2.72,-5.83 5.28,-11.73 7.94,-17.58 -4.64,-10.54 -9.25,-21.09 -13.91,-31.61 z"
       style="opacity:1;fill:#ffffff"
       inkscape:connector-curvature="0" />
    <g
       id="#01ee76ff">
      <path
         sodipodi:nodetypes="ccccc"
         style="opacity:1;fill:#01ee76"
         inkscape:connector-curvature="0"
         id="path57"
         d="m 84.77,72.78 c 2.4,-1.76 5.57,-2.11 8.18,-0.61 20.18,11.09 39.98,22.86 60.17,33.92 L 136.9,124.83 C 119.36,107.66 102.07,90.21 84.77,72.78 Z" />
    </g>
    <g
       id="#00d3ffff">
      <path
         id="path60"
         d="m 83.02,79.98 c -0.12,-2.54 0.51,-5 1.75,-7.2 17.3,17.43 34.59,34.88 52.13,52.05 -17,17.29 -34.26,34.32 -51.33,51.53 l -0.77,0.75 C 83.55,174.97 82.95,172.52 83,170.04 83,140.02 82.99,110 83.02,79.98 Z"
         inkscape:connector-curvature="0"
         style="opacity:1;fill:#00d3ff" />
    </g>
    <g
       id="#ffcb00ff">
      <path
         sodipodi:nodetypes="cccccc"
         style="opacity:1;fill:#ffcb00"
         inkscape:connector-curvature="0"
         id="path63"
         d="m 153.12,106.09 c 0,0 16.15,8.91 23.85,13.96 3.82,2.39 3.16,8.15 -0.57,10.26 -7.06,4.28 -14.35,8.18 -21.5,12.31 -5.86,-5.81 -11.88,-12.26 -18,-17.79 z" />
    </g>
    <g
       id="#f4324aff">
      <path
         id="path66"
         d="m 136.9,124.83 c 0.1,0.09 0.3,0.27 0.41,0.36 6.12,5.53 11.73,11.62 17.59,17.43 -20.06,11.34 -40.11,22.72 -60.15,34.09 -2.96,1.98 -6.85,2.69 -9.91,0.47 l 0.73,-0.82 c 17.07,-17.21 34.33,-34.24 51.33,-51.53 z"
         inkscape:connector-curvature="0"
         style="opacity:1;fill:#f4324a" />
    </g>
  </g>
</svg>
